<svg width="99" height="20" viewBox="0 0 99 20" fill="none" xmlns="http://www.w3.org/2000/svg">
<g clip-path="url(#clip0)">
<path d="M31.8824 13.1936L32.228 12.944C32.6632 12.688 32.9704 12.56 33.1496 12.56C33.5464 12.56 33.9752 12.9184 34.436 13.6352C34.7176 14.0832 34.8584 14.4416 34.8584 14.7104C34.8584 14.9792 34.7688 15.2032 34.5896 15.3824C34.4232 15.5616 34.2248 15.7216 33.9944 15.8624C33.764 16.0032 33.54 16.1376 33.3224 16.2656C33.1176 16.3936 32.6888 16.56 32.036 16.7648C31.3832 16.9696 30.7496 17.072 30.1352 17.072C29.5336 17.072 28.9192 16.9952 28.292 16.8416C27.6776 16.6752 27.0376 16.4064 26.372 16.0352C25.7192 15.6512 25.1304 15.1904 24.6056 14.6528C24.0808 14.1024 23.6456 13.4048 23.3 12.56C22.9672 11.7024 22.8008 10.7744 22.8008 9.776C22.8008 8.7776 22.9672 7.8752 23.3 7.0688C23.6328 6.2496 24.0552 5.5776 24.5672 5.0528C25.092 4.5152 25.6872 4.0672 26.3528 3.7088C27.6072 3.0176 28.868 2.672 30.1352 2.672C30.7368 2.672 31.3448 2.768 31.9592 2.96C32.5864 3.1392 33.06 3.3248 33.38 3.5168L33.8408 3.7856C34.0712 3.9264 34.2504 4.0416 34.3784 4.1312C34.7112 4.4 34.8776 4.7072 34.8776 5.0528C34.8776 5.3856 34.7432 5.7376 34.4744 6.1088C33.9752 6.8 33.5272 7.1456 33.1304 7.1456C32.9 7.1456 32.5736 7.0048 32.1512 6.7232C31.6136 6.288 30.8968 6.0704 30.0008 6.0704C29.1688 6.0704 28.3496 6.3584 27.5432 6.9344C27.1592 7.216 26.8392 7.6128 26.5832 8.1248C26.3272 8.6368 26.1992 9.2192 26.1992 9.872C26.1992 10.512 26.3272 11.088 26.5832 11.6C26.8392 12.112 27.1656 12.5152 27.5624 12.8096C28.3432 13.3728 29.156 13.6544 30.0008 13.6544C30.3976 13.6544 30.7688 13.6032 31.1144 13.5008C31.4728 13.3984 31.7288 13.296 31.8824 13.1936ZM41.7264 6.8C43.0064 6.8 44.0688 7.2864 44.9136 8.2592C45.7712 9.232 46.2 10.4224 46.2 11.8304V15.2096C46.2 15.504 46.1872 15.728 46.1616 15.8816C46.1488 16.0224 46.0912 16.1888 45.9888 16.3808C45.8224 16.7136 45.3296 16.88 44.5104 16.88C43.7296 16.88 43.2432 16.7136 43.0512 16.3808C42.9488 16.1888 42.8848 16.016 42.8592 15.8624C42.8464 15.7088 42.84 15.4784 42.84 15.1712V11.8112C42.84 11.2864 42.6928 10.8768 42.3984 10.5824C42.104 10.288 41.7264 10.1408 41.2656 10.1408C40.8176 10.1408 40.4208 10.2816 40.0752 10.5632C39.7296 10.832 39.5312 11.1392 39.48 11.4848V15.2096C39.48 15.504 39.4672 15.728 39.4416 15.8816C39.4288 16.0224 39.3712 16.1888 39.2688 16.3808C39.1024 16.7136 38.6096 16.88 37.7904 16.88C36.984 16.88 36.4912 16.7072 36.312 16.3616C36.2224 16.1696 36.1648 16.0032 36.1392 15.8624C36.1264 15.7216 36.12 15.4976 36.12 15.1904V3.7088C36.12 3.4144 36.1264 3.1968 36.1392 3.056C36.1648 2.9024 36.2224 2.736 36.312 2.5568C36.4912 2.2112 36.9904 2.0384 37.8096 2.0384C38.616 2.0384 39.1024 2.2112 39.2688 2.5568C39.3712 2.7488 39.4288 2.9216 39.4416 3.0752C39.4672 3.216 39.48 3.4336 39.48 3.728V7.9712C40.12 7.1904 40.8688 6.8 41.7264 6.8ZM57.4988 10.6208C57.4988 11.4016 57.3004 11.984 56.9036 12.368C56.5196 12.7392 56.0908 12.9248 55.6172 12.9248H51.0668C51.0668 13.2832 51.278 13.584 51.7004 13.8272C52.1228 14.0704 52.5452 14.192 52.9676 14.192C53.71 14.192 54.2924 14.1152 54.7148 13.9616L54.926 13.8848C55.2332 13.744 55.4892 13.6736 55.694 13.6736C56.1036 13.6736 56.4556 13.9616 56.75 14.5376C56.9164 14.8832 56.9996 15.1776 56.9996 15.4208C56.9996 16.56 55.6364 17.1296 52.91 17.1296C51.9628 17.1296 51.118 16.9696 50.3756 16.6496C49.646 16.3168 49.0764 15.8816 48.6668 15.344C47.8604 14.3072 47.4572 13.1488 47.4572 11.8688C47.4572 10.256 47.9756 8.9696 49.0124 8.0096C50.062 7.0368 51.3676 6.5504 52.9292 6.5504C54.7084 6.5504 56.014 7.1776 56.846 8.432C57.2812 9.0976 57.4988 9.8272 57.4988 10.6208ZM53.4476 11.1776C53.934 11.1776 54.1772 10.9728 54.1772 10.5632C54.1772 10.2688 54.062 10.032 53.8316 9.8528C53.614 9.6736 53.294 9.584 52.8716 9.584C52.462 9.584 52.0524 9.7568 51.6428 10.1024C51.2332 10.4352 51.0284 10.7936 51.0284 11.1776H53.4476ZM64.3768 6.7616C65.6568 6.7616 66.7192 7.2544 67.564 8.24C68.4216 9.2128 68.8504 10.4032 68.8504 11.8112V15.1904C68.8504 15.4848 68.8376 15.7088 68.812 15.8624C68.7992 16.0032 68.748 16.1632 68.6584 16.3424C68.4792 16.688 67.98 16.8608 67.1608 16.8608C66.252 16.8608 65.7272 16.624 65.5864 16.1504C65.5096 15.9328 65.4712 15.6064 65.4712 15.1712V11.792C65.4712 11.2672 65.3176 10.8576 65.0104 10.5632C64.716 10.2688 64.3128 10.1216 63.8008 10.1216C63.3016 10.1216 62.892 10.2752 62.572 10.5824C62.2648 10.8896 62.1112 11.2928 62.1112 11.792V15.1904C62.1112 15.4848 62.0984 15.7088 62.0728 15.8624C62.06 16.0032 62.0024 16.1632 61.9 16.3424C61.7336 16.688 61.2408 16.8608 60.4216 16.8608C59.6152 16.8608 59.1224 16.688 58.9432 16.3424C58.8536 16.1504 58.796 15.984 58.7704 15.8432C58.7576 15.6896 58.7512 15.4656 58.7512 15.1712V8.3744C58.7512 8.0928 58.7576 7.8816 58.7704 7.7408C58.796 7.5872 58.86 7.4208 58.9624 7.2416C59.1416 6.9216 59.6344 6.7616 60.4408 6.7616C61.2216 6.7616 61.7016 6.9088 61.8808 7.2032C62.0088 7.4208 62.0728 7.6832 62.0728 7.9904C62.124 7.9008 62.2392 7.7728 62.4184 7.6064C62.5976 7.44 62.7704 7.3056 62.9368 7.2032C63.372 6.9088 63.852 6.7616 64.3768 6.7616ZM77.1728 2.5568C77.2752 2.3648 77.448 2.2304 77.6912 2.1536C77.9344 2.0768 78.2544 2.0384 78.6512 2.0384C79.0608 2.0384 79.3872 2.0768 79.6304 2.1536C79.8736 2.2304 80.04 2.3648 80.1296 2.5568C80.232 2.7488 80.2896 2.9216 80.3024 3.0752C80.328 3.216 80.3408 3.4336 80.3408 3.728V15.1904C80.3408 15.4848 80.328 15.7088 80.3024 15.8624C80.2896 16.0032 80.232 16.1632 80.1296 16.3424C79.9376 16.688 79.3936 16.8608 78.4976 16.8608C77.6144 16.8608 77.1216 16.5472 77.0192 15.92C76.4816 16.5344 75.7328 16.8416 74.7728 16.8416C73.6208 16.8416 72.5712 16.3424 71.624 15.344C70.6768 14.3328 70.2032 13.1616 70.2032 11.8304C70.2032 10.4864 70.6768 9.3088 71.624 8.2976C72.584 7.2864 73.6336 6.7808 74.7728 6.7808C75.72 6.7808 76.456 7.1008 76.9808 7.7408V3.7088C76.9808 3.4144 76.9872 3.1968 77 3.056C77.0256 2.9024 77.0832 2.736 77.1728 2.5568ZM74.0624 12.9824C74.3952 13.328 74.7984 13.5008 75.272 13.5008C75.7456 13.5008 76.136 13.328 76.4432 12.9824C76.7632 12.6368 76.9232 12.2592 76.9232 11.8496C76.9232 11.4272 76.7696 11.0368 76.4624 10.6784C76.168 10.32 75.7648 10.1408 75.2528 10.1408C74.7408 10.1408 74.3312 10.32 74.024 10.6784C73.7168 11.024 73.5632 11.408 73.5632 11.8304C73.5632 12.2528 73.7296 12.6368 74.0624 12.9824ZM81.582 11.8304C81.582 10.2944 82.1196 9.0272 83.1948 8.0288C84.27 7.0304 85.4988 6.5312 86.8812 6.5312C88.2636 6.5312 89.486 7.0304 90.5484 8.0288C91.6108 9.0144 92.142 10.2752 92.142 11.8112C92.142 12.8736 91.8668 13.8208 91.3164 14.6528C90.766 15.472 90.094 16.08 89.3004 16.4768C88.5196 16.8608 87.7068 17.0528 86.862 17.0528C86.0172 17.0528 85.198 16.848 84.4044 16.4384C83.6108 16.016 82.9388 15.4016 82.3884 14.5952C81.8508 13.776 81.582 12.8544 81.582 11.8304ZM85.5948 13.2128C86.0044 13.52 86.4204 13.6736 86.8428 13.6736C87.2652 13.6736 87.6876 13.5136 88.11 13.1936C88.5324 12.8736 88.7436 12.4 88.7436 11.7728C88.7436 11.1456 88.5452 10.6784 88.1484 10.3712C87.7516 10.064 87.3228 9.9104 86.862 9.9104C86.4012 9.9104 85.9724 10.0704 85.5756 10.3904C85.1788 10.7104 84.9804 11.184 84.9804 11.8112C84.9804 12.4256 85.1852 12.8928 85.5948 13.2128ZM93.3824 3.6896C93.3824 3.3952 93.3888 3.1776 93.4016 3.0368C93.4272 2.8832 93.4848 2.7104 93.5744 2.5184C93.7536 2.1728 94.2528 2 95.072 2C95.8528 2 96.3392 2.1728 96.5312 2.5184C96.6336 2.7104 96.6912 2.8832 96.704 3.0368C96.7296 3.1904 96.7424 3.4144 96.7424 3.7088V12.5984C96.7424 13.0592 96.7808 13.3536 96.8576 13.4816C96.9344 13.5968 97.1008 13.6544 97.3568 13.6544C97.6256 13.6544 97.8048 13.6672 97.8944 13.6928C97.984 13.7056 98.0928 13.7568 98.2208 13.8464C98.4768 14.0128 98.6048 14.4672 98.6048 15.2096C98.6048 16.016 98.4768 16.5088 98.2208 16.688C97.888 16.9184 97.0944 16.9568 95.84 16.8032C94.8544 16.6752 94.2144 16.3488 93.92 15.824C93.5616 15.1968 93.3824 14.1984 93.3824 12.8288V3.6896Z" fill="#0FAAAA"/>
<path d="M10.0008 17.1998C13.9772 17.1998 17.2008 13.9762 17.2008 9.9998C17.2008 6.02336 13.9772 2.7998 10.0008 2.7998C6.02434 2.7998 2.80078 6.02336 2.80078 9.9998C2.80078 13.9762 6.02434 17.1998 10.0008 17.1998Z" fill="white"/>
<path d="M20 10C20 15.5228 15.5228 20 10 20C4.47716 20 0 15.5228 0 10C0 4.47716 4.47716 0 10 0C15.5228 0 20 4.47716 20 10ZM2.80323 10C2.80323 13.9747 6.02532 17.1968 10 17.1968C13.9747 17.1968 17.1968 13.9747 17.1968 10C17.1968 6.02532 13.9747 2.80323 10 2.80323C6.02532 2.80323 2.80323 6.02532 2.80323 10Z" fill="#0FAAAA"/>
<path fill-rule="evenodd" clip-rule="evenodd" d="M9.99999 16C13.3137 16 16 13.7048 16 10.8735C16 8.04215 10.8228 13.0001 7.50907 13.0001C4.19536 13.0001 3.99984 10.8735 4 10.8735C4 13.7048 6.68627 16 9.99999 16Z" fill="#0FAAAA"/>
</g>
<defs>
<clipPath id="clip0">
<rect width="98.64" height="20" fill="white"/>
</clipPath>
</defs>
</svg>
